<?xml version="1.0" encoding="UTF-8"?><svg id="Layer_1" xmlns="http://www.w3.org/2000/svg" xmlns:xlink="http://www.w3.org/1999/xlink" viewBox="0 0 187.09 85.04"><defs><style>.cls-1{fill:none;}.cls-2{letter-spacing:.86em;}.cls-3{clip-path:url(#clippath);}.cls-4,.cls-5{fill:#231f20;}.cls-5{font-family:Montserrat-Regular, Montserrat;font-size:16.32px;}</style><clipPath id="clippath"><rect class="cls-1" y="0" width="187.09" height="85.04"/></clipPath></defs><g class="cls-3"><path class="cls-4" d="M30.17,31.66c.03-.24,0-.47-.08-.69-.18-.46-.53-.85-1.06-1.16-.29-.12-.54-.18-.76-.18-.12,0-.22,.01-.31,.04-.09,.02-.18,.07-.27,.15-.07,.12-.15,.25-.21,.4-.32,.56-.62,1.16-.9,1.81s-.34,1.18-.18,1.6c.03,.07,.06,.13,.11,.18,.1,.12,.23,.18,.4,.18,.34,0,.76-.15,1.26-.45,.5-.3,.95-.63,1.34-1s.62-.65,.68-.87m68.36,0c.03-.24,0-.47-.08-.69-.18-.46-.53-.85-1.06-1.16-.29-.12-.54-.18-.76-.18-.12,0-.23,.01-.31,.04-.09,.02-.18,.07-.27,.15-.08,.12-.14,.25-.21,.4-.32,.56-.62,1.16-.9,1.81-.28,.65-.34,1.18-.19,1.6,.03,.07,.06,.13,.11,.18,.1,.12,.23,.18,.4,.18,.34,0,.76-.15,1.26-.45,.5-.3,.95-.63,1.34-1,.39-.36,.62-.65,.68-.87m55.28,0c.03-.24,0-.47-.08-.69-.18-.46-.53-.83-1.05-1.12-.22-.12-.42-.18-.61-.18h-.15c-.12,0-.22,.01-.31,.04-.09,.02-.18,.06-.28,.11-.07,.15-.14,.3-.22,.47-.33,.58-.63,1.19-.89,1.83s-.32,1.15-.17,1.54c.02,.05,.05,.1,.09,.15,.09,.12,.23,.18,.4,.18,.34,0,.76-.15,1.26-.45,.5-.3,.95-.63,1.34-1,.39-.36,.62-.65,.68-.87M182.16,2.99c-.35-.24-.67-.53-1.04-.72-.34-.18-.72-.3-1.1-.38-.48-.11-.76,.06-.83,.55-.11,.72-.24,1.45-.2,2.17,.06,.88-.02,1.73-.18,2.58-.98,5.43-2.12,10.82-3.55,16.15-1.32,4.94-2.82,9.83-4.88,14.52-1.14,2.59-2.41,5.1-4.16,7.35-.75,.97-1.56,1.87-2.62,2.52-1.07,.67-2.23,1.01-3.51,.83-.9-.13-1.55-.63-2-1.37-.6-.97-1.14-1.98-1.66-2.99-.56-1.11-1.16-2.18-1.95-3.15-.53-.66-1.23-.9-2.05-.85-1.22,.07-2.28,.57-3.32,1.15-2.19,1.22-4.38,2.44-6.59,3.61-1.67,.89-3.4,1.66-5.27,2.05-1.41,.29-2.24,0-2.94-1.25-.5-.88-.9-1.82-1.25-2.76-.48-1.27-.88-2.56-1.6-3.72-.34-.55-.74-1.05-1.33-1.33-.23-.11-.55-.18-.78-.12-.46,.13-.96,.29-1.31,.59-.81,.69-1.59,1.42-2.31,2.21-1.38,1.5-2.51,3.19-3.65,4.88-.07,.1-.14,.19-.27,.35,0-.16,0-.22,0-.28,.18-1.04,.23-2.08,.11-3.12-.13-1.08-.62-1.69-1.6-1.84-.35-.05-.74,.02-1.08,.13-.49,.16-.96,.39-1.42,.62-2.44,1.26-4.86,2.54-7.3,3.78-1.33,.68-2.71,1.24-4.16,1.62-1.44,.37-2.73,.15-3.84-.86-.47-.42-.92-.88-1.31-1.37-.76-.96-1.49-1.95-2.2-2.95-.68-.95-1.56-1.46-2.74-1.33-.44,.05-.89,.12-1.29,.29-.75,.32-1.48,.67-2.18,1.09-.82,.5-1.57,1.11-2.39,1.62-1.17,.72-2.37,1.39-3.57,2.06-1.16,.65-2.35,1.21-3.64,1.56-1.48,.4-2.81,.21-3.96-.83-.51-.46-1-.95-1.48-1.43-.58-.58-1.12-1.18-1.72-1.74-1-.95-2.09-1.75-3.46-2.1-1.37-.35-2.64-.17-3.72,.77-.52,.45-.99,.96-1.41,1.5-.86,1.11-1.39,2.41-1.92,3.71-.05,.12-.1,.24-.19,.44-.08-.2-.12-.32-.16-.43-.55-1.75-1.29-3.42-2.23-5-.38-.64-.84-1.22-1.44-1.67-.53-.4-1.1-.49-1.73-.31-.88,.25-1.57,.81-2.26,1.38-1.47,1.23-2.67,2.71-3.86,4.2-.1,.13-.21,.25-.36,.44-.03-.15-.05-.23-.06-.3-.03-.4,0-.81-.08-1.2-.14-.73-.27-1.48-.53-2.17-.33-.92-1.06-1.42-2.03-1.55-.17-.02-.37,0-.53,.07-.58,.27-1.16,.56-1.73,.85-2.35,1.21-4.69,2.44-7.04,3.64-1.24,.63-2.53,1.17-3.89,1.53-.68,.18-1.36,.3-2.07,.19-1.08-.17-1.91-.79-2.61-1.57-.6-.66-1.12-1.38-1.66-2.08-.58-.74-1.14-1.5-1.72-2.24-.44-.55-1.07-.72-1.73-.68-.27,.01-.6,.15-.8,.34-.41,.41-.79,.85-1.1,1.34-.43,.69-.8,1.42-1.18,2.14-.46,.88-.91,1.77-1.58,2.52-.77,.87-1.52,1-2.55,.48-1.13-.57-1.92-1.49-2.56-2.54-1.35-2.2-2.25-4.6-2.91-7.08-.5-1.88-.85-3.8-1.29-5.69-.4-1.68-.9-3.33-1.23-5.02-.38-1.96-.67-3.94-.92-5.92-.27-2.14-.49-4.28-.68-6.43-.18-1.93-.31-3.86-.43-5.79-.04-.65-.04-1.31,.06-1.96,.12-.83,.19-1.66,.1-2.49-.04-.42-.14-.8-.5-1.08-.81-.62-1.71-.85-2.72-.66-.22,.04-.33,.18-.35,.39-.01,.14,0,.28,0,.41,.07,2.19,.21,4.38,.21,6.57,0,4.5-.08,8.99-.09,13.49,0,6.58,.01,13.16-.26,19.74-.12,3.02-.26,6.04-.64,9.05-.3,2.43-.72,4.83-1.42,7.17-.39,1.32,.12,2.91,1.21,3.75,.1,.08,.21,.15,.32,.2,.48,.24,.95,.13,1.26-.31,.13-.19,.26-.4,.31-.62,.15-.69,.31-1.38,.38-2.08,.16-1.58,.3-3.16,.4-4.74,.16-2.58,.3-5.15,.42-7.73,.11-2.39,.19-4.78,.28-7.17,.14-3.57,.29-7.15,.41-10.72,.09-2.85,.14-5.71,.21-8.57,.01-.45,.04-.9,.06-1.35,.05,.03,.07,.06,.07,.09,.29,2.81,.75,5.6,1.32,8.36,.47,2.26,1.08,4.48,1.56,6.74,.77,3.68,2.06,7.16,3.89,10.45,.76,1.36,1.72,2.57,3.03,3.46,.74,.51,1.55,.83,2.47,.71,1.12-.14,2.06-.69,2.79-1.5,1.04-1.16,2.01-2.38,3.04-3.61,.4,.44,.85,.92,1.28,1.41,1.03,1.17,2.09,2.3,3.47,3.09,1.44,.84,2.96,1.14,4.6,.81,1.45-.29,2.77-.88,4.06-1.57,2.85-1.52,5.36-3.51,7.78-5.62,.11-.09,.22-.18,.36-.29,.04,.13,.06,.19,.07,.26,.19,1.11,.34,2.24,.6,3.33,.2,.85,.53,1.66,.85,2.48,.17,.44,.56,.61,1.03,.57,.58-.05,1.06-.33,1.46-.71,.6-.56,1.19-1.15,1.73-1.77,.96-1.1,1.88-2.24,2.84-3.33,.31-.35,.67-.68,1.06-.95,.53-.36,.9-.19,1.1,.43,.4,1.26,.8,2.52,1.23,3.76,.34,.97,.78,1.9,1.46,2.69,1.01,1.18,3.11,1.13,3.93-.22,.39-.65,.75-1.33,1.12-1.99,.42-.74,.81-1.51,1.27-2.23,.56-.87,1.49-1.17,2.5-.93,.99,.23,1.75,.82,2.46,1.5,1.03,.97,2.01,2,3.08,2.93,1.32,1.14,2.89,1.66,4.65,1.44,1.34-.17,2.58-.63,3.79-1.22,2.62-1.28,5.01-2.91,7.18-4.86,.45-.4,.94-.66,1.51-.81,.9-.23,1.59-.03,2.15,.76,.76,1.05,1.58,2.07,2.42,3.06,1.03,1.22,2.24,2.22,3.71,2.87,.68,.3,1.38,.52,2.14,.53,1.55,.03,2.99-.39,4.37-1.04,2.95-1.38,5.56-3.27,8.03-5.36,.44-.37,.88-.74,1.39-1.17,.02,.17,.03,.24,.03,.31,.02,1.17-.01,2.35,.09,3.52,.06,.76,.28,1.51,.51,2.24,.17,.54,.7,.75,1.26,.64,.79-.16,1.44-.59,1.97-1.15,1.05-1.1,2.06-2.25,3.06-3.4,.99-1.14,1.95-2.31,2.93-3.47,.12-.14,.27-.25,.44-.4,.04,.14,.07,.23,.1,.32,.28,1.08,.52,2.18,.85,3.24,.44,1.42,1.18,2.69,2.24,3.75,.96,.94,2.16,1.38,3.47,1.43,1.13,.04,2.23-.21,3.29-.59,2.26-.79,4.36-1.9,6.38-3.17,1.13-.71,2.22-1.48,3.38-2.14,.63-.36,1.34-.65,2.05-.82,.86-.21,1.24-.04,1.64,.68,.47,.84,.98,1.66,1.5,2.47,1.05,1.61,2.25,3.1,3.86,4.21,.9,.62,1.9,.92,2.99,.84,1.65-.12,3.05-.79,4.29-1.85,1.1-.94,2.03-2.03,2.86-3.22,1.85-2.64,3.2-5.54,4.38-8.53,2.17-5.5,3.7-11.19,5.01-16.94,.18-.79,.35-1.58,.53-2.37,.04,.37,.02,.74,0,1.1-.18,2.47-.37,4.94-.55,7.4-.14,2.01-.27,4.03-.4,6.05-.18,2.74-.37,5.49-.55,8.23-.15,2.35-.29,4.71-.4,7.07-.13,2.93-.24,5.86-.32,8.78-.03,1.11,.02,2.22,.09,3.33,.04,.66,.24,1.29,.63,1.84,.59,.83,1.6,.87,2.28,.12,.52-.57,.59-1.25,.46-1.96-.4-2.36-.59-4.74-.67-7.13-.13-4.03,.11-8.06,.39-12.08,.18-2.48,.39-4.95,.61-7.43,.22-2.43,.48-4.86,.72-7.29,.27-2.77,.54-5.53,.81-8.3,.22-2.25,.4-4.51,.67-6.75,.26-2.24,.6-4.46,.92-6.69,.08-.56-.02-1.02-.51-1.36"/><text class="cls-5" transform="translate(20.12 83.18)"><tspan class="cls-2" x="0" y="0">LIMINI</tspan><tspan x="137.46" y="0">L</tspan></text></g></svg>